<svg width="260" height="123" viewBox="0 0 260 123" fill="none" xmlns="http://www.w3.org/2000/svg">
<g clip-path="url(#clip0_1454_1340)">
<path d="M60.5017 7.6875H69.7321V44.459H60.5017V40.5715C58.7009 42.2838 56.895 43.5179 55.0787 44.2738C53.2676 45.0297 51.3022 45.4051 49.1824 45.4051C44.4282 45.4051 40.3224 43.5642 36.8546 39.8773C33.3867 36.1955 31.6528 31.6139 31.6528 26.1375C31.6528 20.6611 33.3302 15.8069 36.6848 12.1766C40.0394 8.55138 44.1144 6.73621 48.9148 6.73621C51.1221 6.73621 53.1904 7.15272 55.1302 7.98575C57.0647 8.81877 58.8553 10.0683 60.5017 11.7395V7.68236V7.6875ZM50.7979 15.2567C47.9424 15.2567 45.5756 16.2646 43.6873 18.2803C41.7991 20.296 40.8575 22.8825 40.8575 26.0347C40.8575 29.1868 41.8197 31.8247 43.7388 33.8764C45.6579 35.9281 48.0247 36.9514 50.834 36.9514C53.6432 36.9514 56.1386 35.9436 58.0475 33.9278C59.9563 31.9121 60.9133 29.2691 60.9133 26.0038C60.9133 22.7385 59.9563 20.2138 58.0475 18.2289C56.1386 16.244 53.7204 15.2567 50.8031 15.2567H50.7979Z" fill="black"/>
<path d="M79.1013 0H88.2649V11.4053C90.0708 9.85234 91.8819 8.68507 93.7084 7.90861C95.535 7.13215 97.3821 6.74135 99.2549 6.74135C102.908 6.74135 105.985 8.00117 108.485 10.526C110.626 12.7114 111.696 15.9252 111.696 20.1572V44.4589H102.599V28.3383C102.599 24.0806 102.399 21.1959 101.992 19.6841C101.586 18.1723 100.891 17.0462 99.9135 16.3057C98.9308 15.5601 97.7216 15.1899 96.2759 15.1899C94.403 15.1899 92.7977 15.8121 91.4549 17.0513C90.112 18.2906 89.1807 19.9824 88.6662 22.1215C88.3935 23.227 88.2597 25.7518 88.2597 29.6907V44.4589H79.0962V0H79.1013Z" fill="black"/>
<path d="M119.614 0V22.5586C119.614 28.4412 119.974 32.4983 120.695 34.7249C121.708 37.949 123.463 40.4584 125.953 42.2633C126.823 42.8957 127.785 43.41 128.845 43.8213V0H119.614Z" fill="black"/>
<path d="M25.4323 67.3363L19.716 73.0492C17.3955 70.7507 15.286 69.604 13.3926 69.604C12.3533 69.604 11.5455 69.8251 10.9589 70.2622C10.3724 70.6992 10.0791 71.2495 10.0791 71.9025C10.0791 72.3961 10.2644 72.8538 10.6348 73.2703C11.0053 73.6868 11.9262 74.2576 13.3926 74.9775L16.773 76.6693C20.3334 78.4279 22.7825 80.2173 24.11 82.0428C25.4374 83.8683 26.1063 86.0074 26.1063 88.4653C26.1063 91.7306 24.9075 94.4611 22.5047 96.6465C20.1019 98.8319 16.8862 99.9272 12.8472 99.9272C7.48083 99.9272 3.19491 97.8292 -0.00537109 93.6383L5.67488 87.4523C6.75536 88.7122 8.02621 89.7354 9.47715 90.5119C10.9281 91.2884 12.2195 91.6792 13.3514 91.6792C14.5708 91.6792 15.5484 91.3861 16.2945 90.7999C17.0405 90.2137 17.411 89.54 17.411 88.7739C17.411 87.3546 16.0681 85.9663 13.3875 84.619L10.2746 83.0661C4.3217 80.0682 1.3478 76.3196 1.3478 71.8099C1.3478 68.9046 2.46945 66.421 4.71273 64.359C6.95602 62.297 9.82702 61.2686 13.3206 61.2686C15.7079 61.2686 17.9615 61.7931 20.0659 62.842C22.1754 63.891 23.9607 65.3926 25.4271 67.3569L25.4323 67.3363Z" fill="black"/>
<path d="M60.5378 62.1993H69.7682V98.9708H60.5378V95.0833C58.737 96.7957 56.9311 98.0298 55.1148 98.7857C53.3038 99.5416 51.3383 99.9169 49.2185 99.9169C44.4644 99.9169 40.3585 98.076 36.8907 94.3891C33.4229 90.7074 31.689 86.1257 31.689 80.6493C31.689 75.173 33.3663 70.3188 36.7209 66.6884C40.0756 63.0632 44.1505 61.248 48.951 61.248C51.1582 61.248 53.2266 61.6646 55.1663 62.4976C57.1009 63.3306 58.8914 64.5802 60.5378 66.2513V62.1942V62.1993ZM50.8341 69.7686C47.9785 69.7686 45.6117 70.7764 43.7235 72.7921C41.8352 74.8079 40.8936 77.3944 40.8936 80.5465C40.8936 83.6986 41.8558 86.3365 43.7749 88.3883C45.6941 90.44 48.0608 91.4633 50.8701 91.4633C53.6793 91.4633 56.1747 90.4554 58.0836 88.4397C59.9925 86.424 60.9494 83.7809 60.9494 80.5156C60.9494 77.2504 59.9925 74.7256 58.0836 72.7407C56.1747 70.7559 53.7565 69.7686 50.8392 69.7686H50.8341Z" fill="black"/>
<path d="M88.2651 48.0018V66.2513C89.9321 64.5852 91.7381 63.3357 93.6778 62.4975C95.6175 61.6645 97.691 61.248 99.8983 61.248C104.699 61.248 108.779 63.0632 112.139 66.6884C115.498 70.3187 117.176 74.9672 117.176 80.6493C117.176 86.3313 115.442 90.7022 111.969 94.3891C108.496 98.0709 104.38 99.9169 99.6256 99.9169C97.5058 99.9169 95.5352 99.5415 93.7087 98.7856C91.8821 98.0297 90.0659 96.7956 88.2651 95.0833V98.9707H79.1016V48.0018H88.2651ZM97.9688 69.7685C95.0618 69.7685 92.6487 70.7609 90.7296 72.7407C88.8105 74.7255 87.8535 77.3172 87.8535 80.5156C87.8535 83.714 88.8105 86.4239 90.7296 88.4396C92.6436 90.4553 95.0567 91.4632 97.9688 91.4632C100.881 91.4632 103.16 90.4399 105.09 88.3882C107.019 86.3365 107.981 83.7243 107.981 80.5464C107.981 77.3686 107.035 74.8078 105.141 72.7921C103.248 70.7764 100.855 69.7685 97.974 69.7685H97.9688Z" fill="black"/>
<path d="M150.815 88.3934C148.885 90.4452 146.518 91.4685 143.699 91.4685C140.879 91.4685 138.379 90.4606 136.465 88.4449C134.546 86.4292 133.589 83.7861 133.589 80.5157C133.589 77.2453 134.546 74.7256 136.465 72.7459C138.379 70.7611 140.792 69.7738 143.699 69.7738C146.606 69.7738 148.973 70.7816 150.871 72.7973C152.116 74.124 152.95 75.6975 153.377 77.5178L160.518 70.3805C159.803 69.0539 158.918 67.8249 157.874 66.6988C154.514 63.0684 150.434 61.2532 145.628 61.2532C143.416 61.2532 141.347 61.6749 139.408 62.5079C137.468 63.3409 135.667 64.5905 134 66.2617V48.0071H124.832V98.976H134V95.0885C135.801 96.806 137.617 98.035 139.444 98.7909C141.265 99.5467 143.241 99.9221 145.361 99.9221C150.12 99.9221 154.236 98.0812 157.704 94.3943C158.615 93.4276 159.407 92.394 160.081 91.3039L153.161 84.3877C152.687 85.8995 151.905 87.2365 150.82 88.3934H150.815Z" fill="black"/>
<path d="M194.898 70.9204C193.185 67.9482 190.797 65.588 187.746 63.8551C184.69 62.1222 181.428 61.2532 177.96 61.2532C173.155 61.2532 168.91 62.9244 165.211 66.2565C163.816 67.5214 162.653 68.8944 161.722 70.3702L168.529 77.1732C168.982 75.5535 169.79 74.1394 170.947 72.931C172.856 70.9358 175.244 69.9382 178.115 69.9382C180.986 69.9382 183.46 70.9255 185.349 72.895C187.232 74.8696 188.173 77.4303 188.173 80.5876C188.173 83.7449 187.211 86.3211 185.297 88.3265C183.378 90.332 180.975 91.3347 178.079 91.3347C175.182 91.3347 172.8 90.3423 170.917 88.3625C169.929 87.3238 169.198 86.1206 168.73 84.7476L162.082 91.3913C162.772 92.4043 163.574 93.371 164.485 94.2914C168.215 98.0452 172.723 99.9221 177.996 99.9221C181.582 99.9221 184.86 99.0685 187.839 97.3664C190.813 95.6695 193.164 93.3093 194.893 90.2857C196.617 87.2673 197.481 84.0226 197.481 80.5516C197.481 77.0807 196.627 73.8926 194.914 70.9204H194.898Z" fill="black"/>
<path d="M204.978 62.1994H214.311V79.9089C214.311 83.3541 214.548 85.7504 215.021 87.0925C215.494 88.4346 216.261 89.4733 217.311 90.2189C218.36 90.9645 219.657 91.3347 221.19 91.3347C222.723 91.3347 224.03 90.9696 225.106 90.2343C226.181 89.5041 226.973 88.4243 227.498 87.005C227.884 85.9458 228.074 83.6832 228.074 80.2123V62.1994H237.305V77.78C237.305 84.2026 236.795 88.594 235.782 90.9593C234.542 93.8441 232.715 96.0552 230.302 97.603C227.889 99.1456 224.823 99.917 221.103 99.917C217.069 99.917 213.802 99.0171 211.311 97.2122C208.821 95.4073 207.067 92.8979 206.053 89.6738C205.333 87.4421 204.973 83.385 204.973 77.5075V62.1942L204.978 62.1994Z" fill="black"/>
<path d="M228.074 62.1993H237.305V99.9169H228.074V62.1993Z" fill="black"/>
<path d="M24.3826 19.1597V22.2347H0.226074V19.1597H24.3826Z" fill="black"/>
<path d="M139.82 7.24524H149.153V24.9548C149.153 28.4 149.39 30.7962 149.863 32.1383C150.336 33.4804 151.103 34.5192 152.153 35.2648C153.202 36.0104 154.499 36.3806 156.032 36.3806C157.565 36.3806 158.872 36.0155 159.947 35.2802C161.023 34.55 161.815 33.4702 162.34 32.0509C162.726 30.9916 162.916 28.7291 162.916 25.2582V7.24524H172.147V22.8259C172.147 29.2485 171.637 33.6398 170.624 36.0052C169.384 38.89 167.557 41.1011 165.144 42.6489C162.731 44.1915 159.664 44.9628 155.945 44.9628C151.911 44.9628 148.644 44.063 146.153 42.2581C143.663 40.4532 141.909 37.9438 140.895 34.7197C140.175 32.488 139.814 28.4309 139.814 22.5534V7.24524H139.82Z" fill="black"/>
<path d="M131.947 35.2647C130.898 34.5243 130.131 33.4804 129.663 32.1383C129.189 30.7962 128.948 28.4 128.948 24.9548V7.25037H119.614V22.5585C119.614 28.4411 119.974 32.4983 120.695 34.7248C121.708 37.9489 123.463 40.4583 125.953 42.2632C126.823 42.8957 127.785 43.4099 128.845 43.8213C130.681 44.5309 132.796 44.9114 135.199 44.9628V36.36C133.933 36.2726 132.848 35.9075 131.942 35.2647H131.947Z" fill="black"/>
<path d="M253.641 99.917V62.3896C252.581 62.801 251.619 63.3152 250.749 63.9477C248.259 65.7526 246.504 68.262 245.491 71.4861C244.765 73.7178 244.41 77.7749 244.41 83.6524V99.917H253.641Z" fill="black"/>
<path d="M260 67.7786V61.248C257.597 61.284 255.482 61.572 253.645 62.1119C252.586 62.4256 251.623 62.8164 250.754 63.2946C248.264 64.6624 246.509 66.5702 245.496 69.0127C244.77 70.7044 244.415 73.7846 244.415 78.248V85.0922H253.748V76.4276C253.748 73.8103 253.985 71.9951 254.464 70.977C254.937 69.9588 255.698 69.1669 256.748 68.6064C257.654 68.1179 258.739 67.8454 260.005 67.7786H260Z" fill="black"/>
<path d="M18.3115 0V8.78792C18.3115 11.0813 18.4504 12.6599 18.7334 13.529C19.1296 14.7837 19.8139 15.7658 20.7812 16.4651C21.1208 16.712 21.4964 16.9125 21.908 17.0719V0H18.3115Z" fill="black"/>
<path d="M23.1171 13.7398C22.7106 13.4518 22.4122 13.0456 22.227 12.5211C22.0418 11.9966 21.9491 11.0658 21.9491 9.72375V2.823H18.3115V8.78788C18.3115 11.0813 18.4504 12.6599 18.7334 13.5289C19.1296 14.7836 19.8139 15.7658 20.7812 16.4651C21.1208 16.7119 21.4964 16.9125 21.908 17.0719C22.6232 17.3495 23.4464 17.4987 24.3828 17.5141V14.1614C23.8889 14.1254 23.467 13.9866 23.1119 13.7346L23.1171 13.7398Z" fill="black"/>
<path d="M162.921 7.24524H172.151V52.2493H162.921V7.24524Z" fill="black"/>
<path d="M11.4682 2.82299H15.0647V17.1541H11.4682V15.6372C10.7685 16.3057 10.0636 16.7839 9.35357 17.077C8.64869 17.3701 7.88206 17.5192 7.05884 17.5192C5.20658 17.5192 3.60644 16.7993 2.25326 15.3647C0.905234 13.93 0.226074 12.1457 0.226074 10.0117C0.226074 7.87772 0.879509 5.98541 2.18638 4.57132C3.49325 3.15723 5.0831 2.45276 6.95079 2.45276C7.81003 2.45276 8.61782 2.61731 9.37416 2.94126C10.1305 3.26522 10.8251 3.75372 11.4682 4.40163V2.82299ZM7.68655 5.77458C6.57519 5.77458 5.64907 6.16538 4.91331 6.95213C4.17755 7.73888 3.81225 8.74674 3.81225 9.97571C3.81225 11.2047 4.18784 12.2331 4.93389 13.0301C5.68508 13.8272 6.60606 14.2283 7.69684 14.2283C8.78761 14.2283 9.76519 13.8375 10.5061 13.0507C11.2521 12.264 11.6226 11.2355 11.6226 9.96028C11.6226 8.68503 11.2521 7.70288 10.5061 6.93156C9.76004 6.16024 8.81848 5.77458 7.6814 5.77458H7.68655Z" fill="black"/>
<path d="M0 110.89H4.39396C5.38698 110.89 6.13817 110.967 6.65783 111.117C7.35757 111.322 7.95441 111.687 8.45349 112.212C8.95257 112.736 9.32816 113.379 9.59057 114.14C9.84782 114.901 9.9816 115.837 9.9816 116.953C9.9816 117.93 9.85811 118.778 9.61629 119.483C9.31787 120.347 8.89597 121.051 8.34029 121.586C7.92354 121.992 7.36271 122.306 6.65268 122.537C6.12273 122.707 5.4127 122.789 4.52774 122.789H0V110.895V110.89ZM2.40279 112.901V120.779H4.19845C4.86731 120.779 5.3561 120.743 5.64938 120.665C6.04041 120.568 6.36455 120.403 6.62181 120.172C6.87907 119.94 7.09002 119.555 7.24952 119.025C7.41417 118.49 7.49134 117.765 7.49134 116.845C7.49134 115.924 7.40902 115.22 7.24952 114.726C7.08488 114.233 6.85849 113.852 6.56522 113.574C6.27194 113.297 5.90149 113.112 5.45386 113.014C5.11943 112.937 4.46085 112.901 3.48327 112.901H2.40279Z" fill="black"/>
<path d="M22.6594 122.789V110.895H31.4834V112.906H25.0622V115.544H31.0358V117.549H25.0622V120.789H31.7098V122.794H22.6543L22.6594 122.789Z" fill="black"/>
<path d="M47.4279 122.789L43.1729 110.895H45.7814L48.7914 119.699L51.7087 110.895H54.2607L50.0005 122.789H47.433H47.4279Z" fill="black"/>
<path d="M66.1253 122.789V110.895H74.9492V112.906H68.5281V115.544H74.5016V117.549H68.5281V120.789H75.1756V122.794H66.1201L66.1253 122.789Z" fill="black"/>
<path d="M87.9256 122.789V110.988H90.3283V120.784H96.3019V122.789H87.9204H87.9256Z" fill="black"/>
<path d="M108.172 116.912C108.172 115.698 108.352 114.685 108.717 113.862C108.99 113.256 109.355 112.711 109.823 112.232C110.291 111.749 110.806 111.394 111.362 111.163C112.103 110.849 112.957 110.695 113.929 110.695C115.684 110.695 117.088 111.24 118.138 112.325C119.193 113.41 119.717 114.927 119.717 116.86C119.717 118.794 119.193 120.285 118.148 121.37C117.104 122.455 115.709 122.995 113.96 122.995C112.211 122.995 110.78 122.455 109.736 121.375C108.691 120.295 108.167 118.809 108.167 116.917L108.172 116.912ZM110.646 116.829C110.646 118.177 110.955 119.2 111.578 119.894C112.2 120.588 112.993 120.938 113.95 120.938C114.907 120.938 115.694 120.593 116.306 119.904C116.918 119.215 117.227 118.182 117.227 116.799C117.227 115.415 116.929 114.418 116.332 113.749C115.735 113.081 114.938 112.741 113.95 112.741C112.962 112.741 112.159 113.081 111.552 113.76C110.945 114.438 110.641 115.462 110.641 116.829H110.646Z" fill="black"/>
<path d="M132.235 122.789V110.895H136.094C137.555 110.895 138.507 110.957 138.95 111.075C139.634 111.255 140.205 111.641 140.663 112.243C141.121 112.839 141.353 113.61 141.353 114.562C141.353 115.292 141.219 115.904 140.956 116.403C140.689 116.901 140.354 117.292 139.948 117.575C139.541 117.858 139.125 118.048 138.703 118.141C138.127 118.254 137.298 118.31 136.213 118.31H134.643V122.799H132.24L132.235 122.789ZM134.638 112.906V116.279H135.955C136.902 116.279 137.535 116.218 137.854 116.094C138.173 115.971 138.425 115.775 138.605 115.508C138.785 115.24 138.878 114.932 138.878 114.582C138.878 114.15 138.749 113.79 138.497 113.513C138.245 113.23 137.921 113.055 137.53 112.983C137.242 112.932 136.665 112.901 135.801 112.901H134.638V112.906Z" fill="black"/>
<path d="M153.938 122.789V110.895H157.534L159.695 119.01L161.831 110.895H165.437V122.789H163.204V113.425L160.843 122.789H158.527L156.171 113.425V122.789H153.938Z" fill="black"/>
<path d="M178.46 122.789V110.895H187.284V112.906H180.863V115.544H186.836V117.549H180.863V120.789H187.51V122.794H178.455L178.46 122.789Z" fill="black"/>
<path d="M200.219 122.789V110.895H202.554L207.427 118.84V110.895H209.66V122.789H207.247L202.446 115.03V122.789H200.213H200.219Z" fill="black"/>
<path d="M225.528 122.789V112.906H221.998V110.895H231.455V112.906H227.93V122.789H225.528Z" fill="black"/>
<path d="M243.037 118.917L245.373 118.691C245.511 119.478 245.8 120.054 246.227 120.419C246.659 120.789 247.235 120.969 247.966 120.969C248.737 120.969 249.324 120.804 249.715 120.48C250.106 120.151 250.302 119.771 250.302 119.334C250.302 119.051 250.219 118.814 250.055 118.614C249.89 118.413 249.602 118.243 249.19 118.1C248.907 118.002 248.269 117.827 247.266 117.58C245.98 117.261 245.074 116.871 244.554 116.403C243.824 115.75 243.459 114.953 243.459 114.012C243.459 113.405 243.628 112.839 243.973 112.309C244.318 111.78 244.812 111.379 245.46 111.106C246.108 110.829 246.885 110.695 247.801 110.695C249.293 110.695 250.42 111.024 251.176 111.677C251.933 112.33 252.329 113.204 252.365 114.299L249.962 114.407C249.859 113.796 249.638 113.358 249.298 113.091C248.959 112.824 248.455 112.69 247.775 112.69C247.096 112.69 246.53 112.834 246.134 113.122C245.882 113.307 245.753 113.554 245.753 113.862C245.753 114.145 245.872 114.387 246.108 114.582C246.412 114.834 247.148 115.102 248.316 115.379C249.484 115.657 250.348 115.94 250.909 116.233C251.47 116.526 251.907 116.932 252.226 117.441C252.545 117.95 252.699 118.583 252.699 119.334C252.699 120.018 252.509 120.655 252.133 121.246C251.753 121.843 251.217 122.285 250.528 122.573C249.833 122.861 248.974 123.005 247.94 123.005C246.438 123.005 245.28 122.655 244.472 121.961C243.664 121.267 243.186 120.254 243.026 118.922L243.037 118.917Z" fill="black"/>
</g>
<defs>
<clipPath id="clip0_1454_1340">
<rect width="260" height="123" fill="white"/>
</clipPath>
</defs>
</svg>
