<svg width="21" height="21" viewBox="0 0 21 21" fill="none" xmlns="http://www.w3.org/2000/svg">
<g clip-path="url(#clip0_1454_1591)">
<path d="M1.3125 15.7497C1.31363 16.3008 1.43113 16.8454 1.65731 17.3478C1.88349 17.8503 2.21325 18.2993 2.625 18.6656V20.3435C2.625 20.5175 2.69414 20.6845 2.81721 20.8075C2.94028 20.9306 3.1072 20.9997 3.28125 20.9997H4.59375C4.7678 20.9997 4.93472 20.9306 5.05779 20.8075C5.18086 20.6845 5.25 20.5175 5.25 20.3435V19.6872H15.75V20.3435C15.75 20.5175 15.8191 20.6845 15.9422 20.8075C16.0653 20.9306 16.2322 20.9997 16.4062 20.9997H17.7188C17.8928 20.9997 18.0597 20.9306 18.1828 20.8075C18.3059 20.6845 18.375 20.5175 18.375 20.3435V18.6656C18.7867 18.2993 19.1165 17.8503 19.3427 17.3478C19.5689 16.8454 19.6864 16.3008 19.6875 15.7497V13.781H1.3125V15.7497ZM20.3438 10.4997H3.28125V2.84008C3.28162 2.66784 3.333 2.49957 3.42889 2.3565C3.52478 2.21342 3.6609 2.10195 3.82007 2.03614C3.97924 1.97033 4.15433 1.95313 4.32327 1.98672C4.4922 2.0203 4.6474 2.10316 4.7693 2.22485L5.55967 3.01481C5.02113 4.24035 5.24754 5.43924 5.91322 6.28498L5.90625 6.29195C5.78365 6.41496 5.7148 6.58155 5.7148 6.75523C5.7148 6.9289 5.78365 7.09549 5.90625 7.2185L6.37014 7.68238C6.43108 7.74334 6.50343 7.79169 6.58306 7.82468C6.66269 7.85767 6.74804 7.87465 6.83423 7.87465C6.92042 7.87465 7.00577 7.85767 7.0854 7.82468C7.16503 7.79169 7.23738 7.74334 7.29832 7.68238L11.6201 3.36057C11.6811 3.29963 11.7294 3.22728 11.7624 3.14765C11.7954 3.06802 11.8124 2.98267 11.8124 2.89648C11.8124 2.81028 11.7954 2.72494 11.7624 2.64531C11.7294 2.56568 11.6811 2.49332 11.6201 2.43238L11.1562 1.9685C11.0332 1.84552 10.8663 1.77644 10.6924 1.77644C10.5184 1.77644 10.3515 1.84552 10.2285 1.9685L10.2215 1.97547C9.37576 1.30979 8.1777 1.08338 6.95133 1.62192L6.16137 0.831544C5.76414 0.434269 5.25802 0.163716 4.70702 0.054102C4.15602 -0.0555122 3.58488 0.000736212 3.06585 0.215734C2.54682 0.430731 2.1032 0.79482 1.79111 1.26195C1.47901 1.72909 1.31245 2.27828 1.3125 2.84008V10.4997H0.65625C0.482202 10.4997 0.315282 10.5689 0.192211 10.692C0.0691404 10.815 0 10.9819 0 11.156L0 11.8122C0 11.9863 0.0691404 12.1532 0.192211 12.2763C0.315282 12.3994 0.482202 12.4685 0.65625 12.4685H20.3438C20.5178 12.4685 20.6847 12.3994 20.8078 12.2763C20.9309 12.1532 21 11.9863 21 11.8122V11.156C21 10.9819 20.9309 10.815 20.8078 10.692C20.6847 10.5689 20.5178 10.4997 20.3438 10.4997Z" fill="#1E1E1E"/>
</g>
<defs>
<clipPath id="clip0_1454_1591">
<rect width="21" height="21" fill="white"/>
</clipPath>
</defs>
</svg>
