<svg width="25" height="25" viewBox="0 0 25 25" fill="none" xmlns="http://www.w3.org/2000/svg">
<path d="M10.1561 8.75C10.3061 7.5875 10.5561 6.55625 10.8736 5.72875C11.1398 5.03625 11.4423 4.5175 11.7461 4.18375C12.0498 3.85 12.3048 3.75 12.4998 3.75C12.6948 3.75 12.9498 3.85 13.2536 4.18375C13.5573 4.5175 13.8598 5.03625 14.1261 5.72875C14.4448 6.55625 14.6948 7.5875 14.8436 8.75H10.1561ZM9.70608 5.28C9.87483 4.84375 10.0648 4.44 10.2786 4.08375C9.16276 4.43094 8.14323 5.03345 7.3009 5.84344C6.45858 6.65343 5.81665 7.64862 5.42608 8.75H8.89608C9.05358 7.4375 9.33358 6.25125 9.70733 5.28H9.70608ZM15.2936 5.28C15.1374 4.86558 14.9459 4.46535 14.7211 4.08375C15.8369 4.43094 16.8564 5.03345 17.6988 5.84344C18.5411 6.65343 19.183 7.64862 19.5736 8.75H16.1036C15.9461 7.4375 15.6661 6.25125 15.2923 5.28H15.2936ZM16.2123 10H19.8948C20.0339 10.8275 20.0339 11.6725 19.8948 12.5H16.2123C16.2604 11.6674 16.2604 10.8326 16.2123 10ZM16.1023 13.75H19.5723C19.1818 14.8514 18.5398 15.8466 17.6975 16.6566C16.8552 17.4665 15.8356 18.0691 14.7198 18.4162C14.9323 18.06 15.1236 17.6562 15.2911 17.22C15.6661 16.2487 15.9448 15.0625 16.1036 13.75H16.1023ZM13.2523 18.3162C12.9486 18.65 12.6936 18.75 12.4986 18.75C12.3036 18.75 12.0486 18.65 11.7448 18.3162C11.4411 17.9825 11.1386 17.4637 10.8723 16.7712C10.5536 15.9437 10.3036 14.9137 10.1548 13.75H14.8423C14.6923 14.9125 14.4423 15.9437 14.1248 16.7712C13.8586 17.4637 13.5561 17.9825 13.2523 18.3162ZM5.42608 13.75C5.81665 14.8514 6.45858 15.8466 7.3009 16.6566C8.14323 17.4665 9.16276 18.0691 10.2786 18.4162C10.0542 18.0346 9.86312 17.6344 9.70733 17.22C9.33233 16.2487 9.05358 15.0625 8.89483 13.75H5.42733H5.42608ZM8.78608 12.5H5.10358C4.96465 11.6725 4.96465 10.8275 5.10358 10H8.78608C8.73814 10.8326 8.73814 11.6674 8.78608 12.5ZM10.0373 10C9.98634 10.8326 9.98634 11.6674 10.0373 12.5H14.9623C15.0133 11.6674 15.0133 10.8326 14.9623 10H10.0373ZM4.37483 16.25H5.31858C5.62858 16.695 5.97983 17.11 6.36483 17.49C6.32688 17.4969 6.28839 17.5002 6.24983 17.5H4.86233L3.92483 21.25H21.0748L20.1373 17.5H18.7498C18.7113 17.5002 18.6728 17.4969 18.6348 17.49C19.021 17.1098 19.3713 16.6947 19.6811 16.25H20.6248C20.7642 16.25 20.8996 16.2967 21.0095 16.3825C21.1193 16.4684 21.1973 16.5885 21.2311 16.7237L22.4811 21.7237C22.5041 21.8159 22.5057 21.912 22.486 22.0049C22.4663 22.0977 22.4257 22.1849 22.3672 22.2597C22.3088 22.3345 22.2341 22.395 22.1488 22.4367C22.0634 22.4783 21.9698 22.5 21.8748 22.5H3.12483C3.02989 22.5 2.93621 22.4783 2.85089 22.4367C2.76557 22.395 2.69086 22.3345 2.63242 22.2597C2.57399 22.1849 2.53337 22.0977 2.51364 22.0049C2.49391 21.912 2.4956 21.8159 2.51858 21.7237L3.76858 16.7237C3.80232 16.5885 3.88031 16.4684 3.99016 16.3825C4.10001 16.2967 4.23541 16.25 4.37483 16.25Z" fill="#1E1E1E"/>
</svg>
