<svg width="265" height="70" viewBox="0 0 265 70" fill="none" xmlns="http://www.w3.org/2000/svg">
<g clip-path="url(#clip0_1454_1421)">
<path d="M9.55563 28.0427H0V69.1092H9.55563V28.0427Z" fill="black"/>
<path fill-rule="evenodd" clip-rule="evenodd" d="M26.1983 28.0427H16.8735V60.8602V69.127H45.7536V60.8602H26.1983V28.0427Z" fill="black"/>
<path fill-rule="evenodd" clip-rule="evenodd" d="M135.324 53.3774L126.639 29.468L126.124 28.0427H117.563L102.643 69.1092H112.341L115.449 59.8982H128.184L131.363 69.1092H141.079L137.722 59.8982L135.324 53.3774ZM116.959 53.3774L121.843 38.8572L126.639 53.3774H116.959Z" fill="black"/>
<path fill-rule="evenodd" clip-rule="evenodd" d="M178.342 35.1514V28.0427H146.94V36.3807H167.472L146.123 61.9827V69.0913H178.573V60.7533H158.059L178.342 35.1514Z" fill="black"/>
<path fill-rule="evenodd" clip-rule="evenodd" d="M216.813 53.3774L208.093 29.468L207.613 28.0427H199.052L184.115 69.1092H193.795L196.921 59.8982H209.656L212.835 69.1092H222.533L219.176 59.8982L216.813 53.3774ZM198.43 53.3774L203.35 38.8572L208.11 53.3774H198.43Z" fill="black"/>
<path fill-rule="evenodd" clip-rule="evenodd" d="M72.3423 39.3204L76.4274 36.5055L81.4361 35.4899L84.793 35.9532L87.8835 37.2538L90.5299 39.3204L92.6258 42.0463L92.9455 42.6164L100.139 38.4118L99.8014 37.8239L96.409 33.3342L92.0574 29.9669L86.9599 27.8111L81.4361 27.0629L74.7578 28.1675L68.9143 31.2141L64.3319 35.8641L61.3125 41.7613L60.229 48.5314L61.3125 55.3016L64.3319 61.1988L68.9143 65.831L74.7578 68.8954L81.4361 70L86.9599 69.2339L92.0574 67.1138L96.409 63.7287L99.8014 59.2568L100.139 58.6689L92.9455 54.4286L92.6258 55.0165L90.5299 57.7424L87.8835 59.8091L84.793 61.1275L81.4361 61.5729L76.4274 60.5396L72.3423 57.7424L69.5715 53.6091L68.5413 48.5314L69.5715 43.4538L72.3423 39.3204Z" fill="black"/>
<path fill-rule="evenodd" clip-rule="evenodd" d="M94.8636 9.06847V4.22245H87.1907V9.06847H84.0114V4.22245V0H76.374V4.22245V9.06847H73.1769V4.22245H65.5396V9.06847V16.9254H94.8636V9.06847Z" fill="black"/>
<path fill-rule="evenodd" clip-rule="evenodd" d="M255.995 53.8406C259.281 51.8274 260.986 48.8165 261.448 47.89H261.483L261.608 47.5871C261.608 47.5871 264.254 42.4561 261.466 36.3451L261.146 35.6681C257.824 29.272 250.72 28.114 250.72 28.114L249.299 28.0249H230.827V69.0913H240.312V55.8361H246.493L254.343 69.0913H265.018L255.995 53.8228V53.8406ZM249.779 47.6049H240.294V36.3629H249.725C251.715 36.3629 253.775 38.7859 253.775 41.8147C253.775 44.8434 249.796 47.5871 249.796 47.5871L249.779 47.6049Z" fill="black"/>
</g>
<defs>
<clipPath id="clip0_1454_1421">
<rect width="265" height="70" fill="white"/>
</clipPath>
</defs>
</svg>
