<svg width="229" height="182" viewBox="0 0 229 182" fill="none" xmlns="http://www.w3.org/2000/svg">
<g clip-path="url(#clip0_1454_1277)">
<path d="M51.7324 171.539H53.1219L53.8871 181.879H52.4775L51.7324 171.539Z" fill="#010101"/>
<path d="M61.1765 177.121L60.8744 172.924C60.5321 172.784 60.1293 172.723 59.6863 172.723C58.317 172.723 57.3303 173.426 57.3303 174.912C57.3303 176.398 58.317 177.121 59.8474 177.121H61.1563H61.1765ZM61.4987 181.88L61.257 178.446H59.9481C57.4511 178.446 55.9609 177.141 55.9609 174.892C55.9609 172.643 57.5518 171.398 59.6662 171.398C60.5723 171.398 61.5188 171.639 62.2035 171.98L62.8881 181.859H61.4785L61.4987 181.88Z" fill="#010101"/>
<path d="M68.9696 174.289C67.6607 174.209 66.5129 176.518 66.533 178.325C66.533 179.932 67.3183 180.675 68.9696 180.675C70.6208 180.675 71.4062 179.952 71.4062 178.305C71.4263 176.538 70.2785 174.209 68.9696 174.289ZM68.9696 172.964C71.2652 172.884 72.8158 175.916 72.7755 178.486C72.7755 180.835 71.5069 182.02 68.9696 182.02C66.4323 182.02 65.1838 180.835 65.1838 178.486C65.1637 175.956 66.6538 172.904 68.9696 172.984" fill="#010101"/>
<path d="M79.7028 177.121L79.4008 172.924C79.0584 172.784 78.6557 172.723 78.2127 172.723C76.8434 172.723 75.8566 173.426 75.8566 174.912C75.8566 176.398 76.8433 177.121 78.3738 177.121H79.6827H79.7028ZM80.025 181.88L79.7834 178.446H78.4745C75.9775 178.446 74.4873 177.141 74.4873 174.892C74.4873 172.643 76.0781 171.398 78.1925 171.398C79.0987 171.398 80.0452 171.639 80.7298 171.98L81.4145 181.859H80.0049L80.025 181.88Z" fill="#010101"/>
<path d="M100.243 173.346C100.766 173.346 101.189 173.767 101.189 174.289C101.189 174.812 100.766 175.233 100.243 175.233C99.7192 175.233 99.2964 174.812 99.2964 174.289C99.2964 173.767 99.7192 173.346 100.243 173.346ZM97.4236 173.346C97.9472 173.346 98.3499 173.767 98.3499 174.289C98.3499 174.812 97.927 175.233 97.4236 175.233C96.9202 175.233 96.457 174.812 96.457 174.289C96.457 173.767 96.8799 173.346 97.4236 173.346ZM108.801 180.474V181.839C108.801 181.839 108.721 181.859 108.559 181.859C107.351 181.859 106.224 181.558 105.317 181.056C104.351 181.578 103.062 181.859 101.431 181.859H95.5911C94.2822 181.859 93.2754 181.598 92.5303 181.076C91.8053 180.554 91.4429 179.651 91.4429 178.406C91.4429 177.683 91.5838 176.88 91.8255 175.936L93.1344 176.157C92.933 176.88 92.8525 177.502 92.8525 178.024C92.8525 179.651 93.8191 180.454 95.7321 180.454H101.673C103.082 180.454 104.089 180.193 104.673 179.892V174.571H106.083V179.872C106.808 180.253 107.633 180.454 108.6 180.454H108.841L108.801 180.474Z" fill="#010101"/>
<path d="M112.486 181.839C112.486 181.839 112.406 181.859 112.245 181.859H108.54C108.378 181.859 108.298 181.859 108.298 181.839V180.474H112.466V181.839H112.486Z" fill="#010101"/>
<path d="M116.191 181.839C116.191 181.839 116.111 181.859 115.95 181.859H112.245C112.083 181.859 112.003 181.859 112.003 181.839V180.474H116.171V181.839H116.191Z" fill="#010101"/>
<path d="M119.877 181.839C119.877 181.839 119.796 181.859 119.635 181.859H115.93C115.769 181.859 115.688 181.859 115.688 181.839V180.474H119.856V181.839H119.877Z" fill="#010101"/>
<path d="M123.582 181.839C123.582 181.839 123.501 181.859 123.34 181.859H119.635C119.474 181.859 119.393 181.859 119.393 181.839V180.474H123.561V181.839H123.582Z" fill="#010101"/>
<path d="M127.287 181.839C127.287 181.839 127.207 181.859 127.046 181.859H123.34C123.179 181.859 123.099 181.859 123.099 181.839V180.474H127.267V181.839H127.287Z" fill="#010101"/>
<path d="M130.972 181.839C130.972 181.839 130.892 181.859 130.731 181.859H127.025C126.864 181.859 126.784 181.859 126.784 181.839V180.474H130.952V181.839H130.972Z" fill="#010101"/>
<path d="M146.941 180.474V181.839C146.941 181.839 146.86 181.859 146.699 181.859C145.592 181.859 144.565 181.618 143.618 181.096C142.913 181.578 142.027 181.859 141.161 181.859C140.295 181.859 139.51 181.598 138.785 181.056C138.06 181.578 137.275 181.859 136.409 181.859C135.382 181.859 134.476 181.458 133.932 181.036C133.328 181.498 132.1 181.859 130.75 181.859C130.589 181.859 130.509 181.859 130.509 181.839V180.474H130.75C131.616 180.474 132.462 180.273 133.268 179.892V176.458H134.677V179.932C135.201 180.293 135.765 180.494 136.369 180.494C136.973 180.494 137.537 180.313 138.04 179.952V176.478H139.45V179.952C139.973 180.313 140.537 180.494 141.141 180.494C141.745 180.494 142.309 180.293 142.813 179.932V175.795H144.222V179.912C144.947 180.293 145.773 180.494 146.739 180.494H146.981L146.941 180.474Z" fill="#010101"/>
<path d="M150.646 181.839C150.646 181.839 150.566 181.859 150.404 181.859H146.699C146.538 181.859 146.458 181.859 146.458 181.839V180.474H150.626V181.839H150.646Z" fill="#010101"/>
<path d="M163.856 174.751V180.634C163.131 181.377 161.943 181.879 160.815 181.879C159.949 181.879 159.164 181.618 158.439 181.076C157.714 181.598 156.929 181.879 156.063 181.879C155.036 181.879 154.13 181.478 153.586 181.056C152.982 181.518 151.753 181.879 150.404 181.879C150.243 181.879 150.163 181.879 150.163 181.859V180.494H150.404C151.27 180.494 152.116 180.293 152.921 179.912V176.478H154.331V179.952C154.855 180.313 155.418 180.514 156.023 180.514C156.627 180.514 157.19 180.333 157.694 179.972V176.498H159.104V179.972C159.627 180.333 160.191 180.514 160.795 180.514C161.399 180.514 161.963 180.313 162.466 179.952V174.791H163.876L163.856 174.751Z" fill="#010101"/>
<path d="M171.206 180.474V181.839C171.206 181.839 171.125 181.859 170.964 181.859C169.676 181.859 168.487 181.518 167.622 181.056C167.199 180.815 167.058 180.594 167.058 180.072V171.077H168.467V179.872C169.172 180.233 170.078 180.454 170.984 180.454H171.226L171.206 180.474ZM169.273 168.868V169.912H166.212V168.868H166.917C166.695 168.627 166.574 168.306 166.574 167.964C166.574 167.221 167.138 166.639 167.964 166.639C168.427 166.639 168.81 166.78 169.132 167.101L168.548 167.744C168.427 167.623 168.266 167.563 168.065 167.563C167.702 167.563 167.481 167.804 167.481 168.165C167.481 168.587 167.783 168.868 168.467 168.868H169.273Z" fill="#010101"/>
<path d="M175.556 171.278C176.08 171.278 176.502 171.699 176.502 172.221C176.502 172.743 176.08 173.165 175.556 173.165C175.032 173.165 174.609 172.743 174.609 172.221C174.609 171.699 175.032 171.278 175.556 171.278ZM172.737 171.278C173.26 171.278 173.663 171.699 173.663 172.221C173.663 172.743 173.24 173.165 172.737 173.165C172.233 173.165 171.77 172.743 171.77 172.221C171.77 171.699 172.193 171.278 172.737 171.278ZM174.891 180.996C174.428 181.257 173.864 181.478 173.139 181.639C172.415 181.799 171.71 181.88 170.985 181.88C170.824 181.88 170.743 181.88 170.743 181.859V180.494H170.985C171.992 180.494 172.918 180.293 173.502 180.052V174.631H174.912V181.016L174.891 180.996Z" fill="#010101"/>
<path d="M6.8265 134.291L13.6127 155.816L20.4392 134.291H27.306V158.487H23.3189V137.645L16.734 158.487H10.4915L3.98716 137.785V158.487H0V134.291H6.8265Z" fill="#010101"/>
<path d="M34.2936 149.331C34.2936 150.937 34.8575 152.323 35.965 153.467C37.0927 154.612 38.462 155.174 40.073 155.174C41.684 155.174 43.0332 154.592 44.181 153.447C45.3288 152.302 45.8926 150.917 45.8926 149.331C45.8926 147.744 45.3288 146.359 44.181 145.194C43.0332 144.03 41.6638 143.447 40.073 143.447C38.4822 143.447 37.0927 144.03 35.965 145.174C34.8373 146.319 34.2936 147.704 34.2936 149.311M33.2465 142.604C35.0186 140.757 37.1934 139.833 39.7307 139.833C42.2679 139.833 44.1608 140.757 45.6107 142.604V140.154H49.5979V158.467H45.6107V156.017C44.1608 157.844 42.1874 158.748 39.7307 158.748C37.2739 158.748 35.0588 157.824 33.2666 155.977C31.4744 154.13 30.5884 151.901 30.5884 149.331C30.5884 146.761 31.4744 144.471 33.2465 142.624" fill="#010101"/>
<path d="M56.6055 149.331C56.6055 150.937 57.1694 152.323 58.2769 153.467C59.3844 154.612 60.7538 155.174 62.405 155.174C64.0563 155.174 65.3652 154.591 66.513 153.447C67.6608 152.302 68.2247 150.917 68.2247 149.331C68.2247 147.744 67.6608 146.359 66.513 145.194C65.3652 144.03 63.9959 143.447 62.405 143.447C60.8142 143.447 59.4247 144.03 58.297 145.174C57.1694 146.319 56.6257 147.704 56.6257 149.311M55.5785 142.604C57.3506 140.757 59.5254 139.833 62.0627 139.833C64.6 139.833 66.4929 140.757 67.9427 142.604V134.271H71.9299V158.447H67.9427V156.037C66.4929 157.824 64.5194 158.728 62.0627 158.728C59.606 158.728 57.3909 157.804 55.5987 155.957C53.8064 154.11 52.9204 151.881 52.9204 149.311C52.9204 146.74 53.8064 144.451 55.5785 142.604Z" fill="#010101"/>
<path d="M79.9646 158.487H75.9774V140.175H79.9646V158.487ZM76.1788 133.789C76.6822 133.307 77.3065 133.066 78.0113 133.066C78.7161 133.066 79.3403 133.307 79.8236 133.769C80.327 134.251 80.5687 134.833 80.5687 135.556C80.5687 136.279 80.327 136.861 79.8438 137.323C79.3403 137.805 78.7161 138.046 78.0113 138.046C77.3065 138.046 76.6822 137.805 76.1788 137.343C75.6754 136.882 75.4136 136.279 75.4136 135.556C75.4136 134.833 75.6754 134.271 76.1788 133.789Z" fill="#010101"/>
<path d="M83.8711 140.175H87.8583V142.584C89.2679 140.757 91.1809 139.853 93.5772 139.853C95.6715 139.853 97.4838 140.536 98.9941 141.881C100.504 143.227 101.27 145.014 101.27 147.263V158.487H97.2825V148.327C97.2825 146.881 96.8394 145.716 95.9735 144.853C95.1076 143.99 94.0404 143.548 92.7717 143.548C91.3218 143.548 90.1338 144.07 89.2276 145.114C88.3214 146.158 87.8583 147.463 87.8583 149.03V158.467H83.8711V140.154V140.175Z" fill="#010101"/>
<path d="M107.955 147.744H118.829C118.608 146.52 117.984 145.496 117.017 144.652C116.03 143.809 114.842 143.387 113.433 143.387C112.023 143.387 110.815 143.809 109.828 144.652C108.841 145.496 108.217 146.52 107.955 147.744ZM106.807 142.624C108.66 140.777 110.875 139.853 113.453 139.853C115.768 139.853 117.782 140.596 119.494 142.082C121.205 143.568 122.273 145.435 122.655 147.664C122.796 148.226 122.857 148.769 122.857 149.331C122.857 149.813 122.796 150.295 122.675 150.776H107.915C108.136 152.142 108.781 153.226 109.808 154.029C110.835 154.833 112.043 155.234 113.433 155.234C115.567 155.234 117.259 154.471 118.527 152.945L122.051 153.869C121.306 155.335 120.138 156.519 118.507 157.403C116.876 158.286 115.184 158.728 113.433 158.728C110.774 158.728 108.539 157.804 106.727 155.957C104.914 154.11 104.008 151.901 104.008 149.291C104.008 146.68 104.935 144.431 106.787 142.584" fill="#010101"/>
<path d="M124.428 143.628V140.174H127.891V135.797L131.798 134.653V140.174H137.436V143.628H131.798V152.543C131.798 153.668 132.12 154.371 132.785 154.652C133.449 154.933 134.033 155.073 134.577 155.073C135.402 155.073 136.409 154.893 137.597 154.511V158.346C136.349 158.688 135.201 158.868 134.174 158.868C132.805 158.868 131.415 158.467 130.026 157.684C128.616 156.881 127.911 155.194 127.911 152.584V143.628H124.448H124.428Z" fill="#010101"/>
<path d="M153.123 134.291L159.909 155.816L166.736 134.291H173.582V158.487H169.615V137.645L163.03 158.487H156.788L150.284 137.785V158.487H146.296V134.291H153.123Z" fill="#010101"/>
<path d="M180.59 149.331C180.59 150.937 181.154 152.323 182.261 153.467C183.389 154.612 184.758 155.174 186.369 155.174C187.98 155.174 189.33 154.592 190.477 153.447C191.625 152.302 192.189 150.917 192.189 149.331C192.189 147.744 191.625 146.359 190.477 145.194C189.33 144.03 187.96 143.447 186.369 143.447C184.779 143.447 183.389 144.03 182.261 145.174C181.134 146.319 180.59 147.704 180.59 149.311M179.543 142.604C181.315 140.757 183.49 139.833 186.027 139.833C188.564 139.833 190.457 140.757 191.907 142.604V140.154H195.894V158.467H191.907V156.017C190.457 157.844 188.484 158.748 186.027 158.748C183.57 158.748 181.355 157.824 179.563 155.977C177.771 154.13 176.885 151.901 176.885 149.331C176.885 146.761 177.771 144.471 179.543 142.624" fill="#010101"/>
<path d="M199.217 145.395C199.217 143.668 199.922 142.323 201.331 141.339C202.741 140.355 204.533 139.873 206.728 139.873C209.346 139.873 211.702 140.516 213.837 141.781V145.616C211.158 144.07 208.782 143.307 206.728 143.307C205.721 143.307 204.896 143.488 204.251 143.869C203.607 144.251 203.305 144.753 203.305 145.375C203.305 145.576 203.345 145.777 203.426 145.937C203.506 146.118 203.647 146.259 203.849 146.399C204.05 146.54 204.231 146.66 204.433 146.74C204.634 146.841 204.916 146.921 205.278 147.042C205.641 147.142 205.963 147.222 206.205 147.283C206.466 147.343 206.829 147.423 207.332 147.544C207.836 147.664 208.218 147.744 208.52 147.825C210.655 148.327 212.185 149.05 213.152 149.973C214.119 150.897 214.602 152.021 214.622 153.367C214.622 154.612 214.239 155.656 213.454 156.519C212.689 157.362 211.762 157.965 210.695 158.306C209.628 158.648 208.46 158.808 207.191 158.808C204.574 158.808 202.036 158.005 199.579 156.419V152.383C200.405 153.106 201.553 153.768 203.003 154.391C204.453 155.013 205.862 155.314 207.191 155.314C208.098 155.314 208.863 155.134 209.527 154.772C210.192 154.411 210.514 153.929 210.514 153.347C210.514 152.764 210.131 152.222 209.366 151.8C208.601 151.399 207.413 151.037 205.802 150.716C203.547 150.254 201.875 149.612 200.788 148.809C199.72 147.985 199.177 146.861 199.177 145.435" fill="#010101"/>
<path d="M217.159 140.174H221.146V143.186C221.73 142.042 222.516 141.219 223.523 140.717C224.529 140.215 225.556 139.974 226.624 139.974C227.127 139.974 227.671 140.014 228.215 140.114V144.371C227.49 144.15 226.825 144.03 226.181 144.03C225.134 144.03 224.046 144.411 222.898 145.174C221.75 145.937 221.166 147.283 221.166 149.21V158.507H217.179V140.195L217.159 140.174Z" fill="#010101"/>
<path d="M122.877 104.835C122.877 104.835 122.756 104.794 122.736 104.794C121.709 104.794 120.702 104.815 119.675 104.794C118.286 104.734 117.299 105.096 116.554 106.903C115.789 108.75 115.728 110.658 116.232 112.565C116.735 114.473 118.105 115.417 120.078 115.256C121.629 115.135 122.837 114.131 122.857 112.766C122.917 110.136 122.857 107.505 122.857 104.855M164.158 115.216C164.158 114.955 164.158 114.714 164.158 114.473C164.158 111.039 164.179 107.606 164.158 104.192C164.158 103.77 164.299 103.55 164.642 103.329C165.608 102.726 166.575 102.124 167.521 101.481C167.984 101.18 168.266 101.542 168.609 101.682C168.73 101.742 168.85 102.003 168.85 102.164C168.85 107.586 168.85 113.027 168.85 118.448C168.85 118.529 168.85 118.609 168.83 118.77H168.266C165.487 118.77 162.708 118.71 159.93 118.77C157.493 118.85 155.54 118.067 154.13 116.059C154.07 116.059 154.029 116.059 154.009 116.099C152.882 117.846 151.17 118.609 149.196 118.689C147.243 118.77 131.858 118.75 129.905 118.629C128.314 118.529 126.945 117.846 126.059 116.36C125.012 117.344 123.803 117.987 122.454 118.368C120.682 118.85 118.89 118.91 117.118 118.509C114.621 117.926 112.869 116.4 111.943 114.031C110.996 111.601 110.875 109.091 111.701 106.582C112.708 103.489 114.943 101.823 118.105 101.381C119.091 101.24 120.098 101.281 121.105 101.26C123.24 101.26 125.394 101.26 127.589 101.26V101.903C127.589 105.497 127.589 109.112 127.589 112.706C127.589 114.192 128.073 114.915 129.543 115.075C131.194 115.236 146.256 115.256 147.908 115.196C149.055 115.155 150.103 113.931 150.203 112.605C150.284 111.621 150.223 110.618 150.223 109.614C150.223 108.81 150.203 107.987 150.223 107.184C150.223 107.003 150.364 106.762 150.526 106.682C151.613 106.08 152.7 105.497 153.808 104.915C154.291 104.654 154.956 105.076 154.956 105.618C154.956 107.887 154.956 110.176 154.976 112.445C154.976 112.786 155.097 113.168 155.298 113.429C156.104 114.573 157.292 115.095 158.621 115.155C160.453 115.256 162.286 115.176 164.179 115.176" fill="#010101"/>
<path d="M118.407 92.3654H114.661V96.1403H118.407V92.3654Z" fill="#010101"/>
<path d="M125.052 92.3654H121.306V96.1202H125.052V92.3654Z" fill="#010101"/>
<path d="M153.465 96.1403H149.72V99.9152H153.465V96.1403Z" fill="#010101"/>
<path d="M162.084 122.083H158.338V125.858H162.084V122.083Z" fill="#010101"/>
<path d="M168.709 122.083H164.964V125.858H168.709V122.083Z" fill="#010101"/>
<path d="M223.744 113.469C223.221 114.533 222.395 115.155 221.167 115.236C221.066 115.236 220.985 115.236 220.885 115.236C220.784 115.236 220.703 115.236 220.623 115.236C219.394 115.176 218.569 114.533 218.045 113.469C217.542 112.485 217.421 111.421 217.461 110.316C217.461 110.055 217.461 109.814 217.461 109.553C217.522 108.429 217.683 107.304 218.287 106.321C218.911 105.317 219.898 104.815 220.885 104.815C221.871 104.815 222.858 105.317 223.482 106.321C224.107 107.324 224.248 108.429 224.308 109.553C224.308 109.814 224.308 110.075 224.308 110.316C224.348 111.421 224.207 112.465 223.724 113.469M228.919 108.589C228.718 105.778 227.409 103.55 224.852 102.224C223.583 101.562 222.254 101.341 220.864 101.341C219.475 101.341 218.146 101.562 216.877 102.224C214.32 103.57 213.011 105.778 212.81 108.589C212.769 109.031 212.749 109.493 212.749 109.955C212.749 110.999 212.85 112.023 213.031 113.027C213.132 113.549 213.273 114.031 213.474 114.493C213.394 114.533 213.313 114.573 213.212 114.593C212.286 114.935 211.319 115.236 210.333 115.296C210.071 115.296 195.673 115.376 194.485 115.296C193.518 115.236 192.531 114.935 191.625 114.593C190.699 114.252 190.095 113.569 189.813 112.565C189.169 110.417 188.363 108.308 187.135 106.421C186.39 105.276 185.584 104.092 184.557 103.188C182.181 101.06 179.201 101.12 176.24 101.281V104.835C177.046 104.835 177.831 104.835 178.637 104.835C180.107 104.855 181.255 105.578 182.06 106.722C183.288 108.509 184.215 110.457 184.879 112.525C185.141 113.388 185.342 114.292 185.604 115.236H173.945V118.669C173.945 118.669 174.046 118.71 174.086 118.71C178.717 118.71 183.369 118.71 188.001 118.71C188.162 118.71 188.383 118.569 188.484 118.448C188.866 117.926 189.209 117.364 189.591 116.802C191.545 118.509 192.169 118.73 194.726 118.73C196.78 118.73 202.177 118.73 207.393 118.73H210.413C212.749 118.73 213.414 118.448 215.246 116.862C216.253 117.726 217.542 118.288 219.032 118.509C219.636 118.589 222.093 118.589 222.697 118.509C225.858 118.027 228.114 116.059 228.678 113.027C228.879 112.023 228.96 110.999 228.96 109.955C228.96 109.493 228.96 109.031 228.919 108.589Z" fill="#010101"/>
<path d="M100.122 113.509C99.5984 114.573 98.7727 115.196 97.5443 115.276C97.4638 115.276 97.3631 115.276 97.2624 115.276C97.1617 115.276 97.0812 115.276 97.0006 115.276C95.7723 115.216 94.9467 114.573 94.4231 113.509C93.9197 112.525 93.7988 111.461 93.8391 110.356C93.8391 110.095 93.8391 109.855 93.8391 109.593C93.8995 108.469 94.0606 107.345 94.6647 106.341C95.289 105.337 96.2757 104.835 97.2624 104.835C98.2492 104.835 99.2359 105.337 99.8601 106.341C100.484 107.345 100.625 108.449 100.686 109.593C100.686 109.855 100.686 110.095 100.686 110.356C100.726 111.461 100.585 112.505 100.102 113.509M59.1226 115.256H43.0733C43.2142 114.995 43.2747 114.834 43.3753 114.694C45.9932 111.059 49.1749 108.047 52.9606 105.658C53.9474 105.035 55.0146 104.594 56.243 104.855C57.411 105.076 58.2366 105.758 58.8206 106.762C59.6059 108.148 59.9281 109.694 60.1496 111.24C60.2704 112.103 60.3308 112.987 60.4114 113.85C60.4919 114.894 60.1698 115.236 59.1428 115.256M105.317 108.63C105.116 105.819 103.807 103.61 101.25 102.264C99.9809 101.602 98.6519 101.381 97.2624 101.381C95.873 101.381 94.5439 101.602 93.2954 102.264C90.738 103.61 89.4291 105.819 89.2277 108.63C89.1874 109.071 89.1673 109.533 89.1673 109.995C89.1673 111.019 89.268 112.063 89.4492 113.067C89.5499 113.589 89.711 114.071 89.8922 114.533C89.8117 114.573 89.7311 114.613 89.6304 114.633C88.7041 114.975 87.7375 115.276 86.771 115.336C86.7106 115.336 70.2182 115.276 68.7281 115.196C67.8219 115.155 66.9761 114.814 66.2512 114.252C65.6068 113.75 65.1436 113.168 65.0832 112.284C64.9221 110.437 64.5194 108.61 63.7944 106.883C62.2439 103.108 59.324 101.18 55.2361 101.281C52.6183 101.341 50.3025 102.325 48.1277 103.69C44.9259 105.718 42.3282 108.409 39.9319 111.3C39.3076 112.043 38.7237 112.806 38.0591 113.629C37.898 113.388 37.7168 113.228 37.6564 113.007C37.5557 112.605 37.4953 112.184 37.4953 111.782C37.4752 109.774 37.4953 107.746 37.4752 105.738C37.4752 105.517 37.3946 105.156 37.2335 105.096C36.8509 104.935 36.4683 104.533 35.9447 104.915C35.0587 105.558 34.1324 106.16 33.1859 106.762C32.8637 106.963 32.7832 107.184 32.7832 107.565C32.8033 109.091 32.8033 110.597 32.7832 112.123C32.7429 114.051 31.5347 115.236 29.6418 115.236C29.3196 115.236 17.5393 115.216 17.2171 115.236C15.284 115.376 13.6327 114.653 12.1426 113.489C11.8808 113.288 11.76 113.067 11.76 112.706C11.76 111.16 11.76 106.461 11.76 102.827C11.76 102.184 10.9746 101.863 10.5316 102.325L7.28952 105.638C7.14856 105.778 7.08815 105.939 7.08815 106.14C7.08815 111.18 7.08815 116.621 7.10828 120.075C7.10828 121.079 6.70554 121.721 5.85978 122.143C5.45704 122.344 5.05429 122.525 4.63141 122.665C3.28222 123.107 1.91289 123.288 0.50329 123.308C-0.0404136 123.308 -0.100825 123.428 0.100547 123.95C0.402604 124.693 0.704662 125.416 0.986583 126.159C1.08727 126.44 1.24837 126.561 1.55042 126.541C2.33577 126.48 3.14126 126.46 3.92661 126.38C6.06115 126.159 8.0346 125.436 9.78653 124.191C11.0954 123.247 11.8405 122.003 11.7801 120.336C11.7398 119.493 11.7801 118.649 11.7801 117.806C11.7801 117.665 11.7801 117.525 11.8204 117.324C12.0419 117.445 12.203 117.545 12.3641 117.645C13.2904 118.228 14.2771 118.629 15.3645 118.689C16.3714 118.75 28.8564 118.77 29.8633 118.75C31.9173 118.71 33.9109 118.489 35.4614 116.842C36.9919 118.469 38.925 118.79 41.0193 118.77C47.8055 118.73 54.5716 118.77 61.3578 118.77C62.848 118.77 64.2576 118.549 65.0429 116.963C66.4123 118.509 67.4191 118.79 69.312 118.79C71.1445 118.79 86.8314 118.79 86.8314 118.79C89.1673 118.79 89.8318 118.509 91.6643 116.943C92.6712 117.786 93.9599 118.348 95.4501 118.589C96.0542 118.669 98.5109 118.669 99.1151 118.589C102.277 118.107 104.532 116.139 105.096 113.107C105.297 112.103 105.378 111.079 105.378 110.035C105.378 109.573 105.378 109.112 105.337 108.67" fill="#010101"/>
<path d="M114.842 73.6715C114.842 73.6715 114.842 73.6715 114.862 73.6715C114.862 73.6715 114.862 73.6715 114.842 73.6715ZM114.882 73.6715C114.882 73.6715 114.882 73.6715 114.903 73.6715C114.903 73.6715 114.903 73.6715 114.882 73.6715ZM114.903 73.6715C114.903 73.6715 115.003 73.6112 115.044 73.5711C115.003 73.6112 114.943 73.6313 114.903 73.6715ZM115.044 73.5711C115.044 73.5711 115.044 73.5711 115.064 73.5711C115.124 73.5309 115.185 73.4707 115.245 73.4305C115.185 73.4908 115.124 73.551 115.044 73.5912M124.428 38.8337C124.428 38.8337 124.448 38.8136 124.468 38.7935C124.468 38.7935 124.448 38.8136 124.428 38.8337Z" fill="#C6D92E"/>
<mask id="mask0_1454_1277" style="mask-type:luminance" maskUnits="userSpaceOnUse" x="114" y="38" width="11" height="36">
<path d="M114.842 73.6715C114.842 73.6715 114.842 73.6715 114.862 73.6715C114.862 73.6715 114.862 73.6715 114.842 73.6715ZM114.882 73.6715C114.882 73.6715 114.882 73.6715 114.903 73.6715C114.903 73.6715 114.903 73.6715 114.882 73.6715ZM114.903 73.6715C114.903 73.6715 115.003 73.6112 115.044 73.5711C115.003 73.6112 114.943 73.6313 114.903 73.6715ZM115.044 73.5711C115.044 73.5711 115.044 73.5711 115.064 73.5711C115.124 73.5309 115.185 73.4707 115.245 73.4305C115.185 73.4908 115.124 73.551 115.044 73.5912M124.428 38.8337C124.428 38.8337 124.448 38.8136 124.468 38.7935C124.468 38.7935 124.448 38.8136 124.428 38.8337Z" fill="white"/>
</mask>
<g mask="url(#mask0_1454_1277)">
<path d="M127.408 5.52185H114.278V74.073H127.408V5.52185Z" fill="#C6D92E"/>
</g>
<path d="M114.52 5.76282V73.7518C114.621 73.7518 114.721 73.7116 114.822 73.6715C114.882 73.6514 114.923 73.6112 114.983 73.5911C115.064 73.5309 115.144 73.4707 115.225 73.3904L123.763 64.8767C124.025 64.6156 124.166 64.2743 124.166 63.9129L124.327 39.0746V39.0545C124.327 39.0545 124.367 38.8738 124.407 38.8136C124.407 38.8136 124.428 38.7935 124.448 38.7734C124.629 38.6328 124.871 38.6329 125.052 38.8136L136.53 50.2388C136.913 50.6203 137.557 50.6203 137.94 50.2388L147.907 40.0384C148.089 39.8577 148.169 39.6368 148.169 39.3959C148.169 39.1549 148.089 38.934 147.907 38.7533L115.386 6.16441C115.386 6.16441 115.265 6.06401 115.205 6.00377C115.164 5.96361 115.104 5.94353 115.064 5.92345C114.923 5.86321 114.782 5.80298 114.641 5.80298C114.621 5.80298 114.601 5.80298 114.58 5.80298" fill="#2B2B2B"/>
<mask id="mask1_1454_1277" style="mask-type:luminance" maskUnits="userSpaceOnUse" x="114" y="5" width="35" height="69">
<path d="M114.52 5.76282V73.7518C114.621 73.7518 114.721 73.7116 114.822 73.6715C114.882 73.6514 114.923 73.6112 114.983 73.5911C115.064 73.5309 115.144 73.4707 115.225 73.3904L123.763 64.8767C124.025 64.6156 124.166 64.2743 124.166 63.9129L124.327 39.0746V39.0545C124.327 39.0545 124.367 38.8738 124.407 38.8136C124.407 38.8136 124.428 38.7935 124.448 38.7734C124.629 38.6328 124.871 38.6329 125.052 38.8136L136.53 50.2388C136.913 50.6203 137.557 50.6203 137.94 50.2388L147.907 40.0384C148.089 39.8577 148.169 39.6368 148.169 39.3959C148.169 39.1549 148.089 38.934 147.907 38.7533L115.386 6.16441C115.386 6.16441 115.265 6.06401 115.205 6.00377C115.164 5.96361 115.104 5.94353 115.064 5.92345C114.923 5.86321 114.782 5.80298 114.641 5.80298C114.621 5.80298 114.601 5.80298 114.58 5.80298" fill="white"/>
</mask>
<g mask="url(#mask1_1454_1277)">
<path d="M148.652 5.52185H114.278V74.073H148.652V5.52185Z" fill="#2B2B2B"/>
</g>
<path d="M114.48 73.7518C114.48 73.7518 114.4 73.7518 114.359 73.7518C114.4 73.7518 114.44 73.7518 114.48 73.7518ZM114.198 73.6915C114.198 73.6915 114.138 73.6715 114.097 73.6514C114.138 73.6514 114.158 73.6915 114.198 73.6915ZM104.613 39.0545C104.613 39.0545 104.552 38.8738 104.492 38.8136C104.552 38.8738 104.593 38.9541 104.613 39.0545ZM104.492 38.8136C104.492 38.8136 104.371 38.7132 104.311 38.6931C104.391 38.7132 104.452 38.7533 104.492 38.8136Z" fill="#C6D92E"/>
<path d="M114.48 73.7518C114.48 73.7518 114.4 73.7518 114.359 73.7518C114.4 73.7518 114.44 73.7518 114.48 73.7518ZM114.198 73.6915C114.198 73.6915 114.138 73.6715 114.097 73.6514C114.138 73.6514 114.158 73.6915 114.198 73.6915ZM104.613 39.0545C104.613 39.0545 104.552 38.8738 104.492 38.8136C104.552 38.8738 104.593 38.9541 104.613 39.0545ZM104.492 38.8136C104.492 38.8136 104.371 38.7132 104.311 38.6931C104.391 38.7132 104.452 38.7533 104.492 38.8136Z" fill="#C6D92E"/>
<path d="M114.48 73.7518C114.48 73.7518 114.4 73.7518 114.359 73.7518C114.4 73.7518 114.44 73.7518 114.48 73.7518ZM114.198 73.6915C114.198 73.6915 114.138 73.6715 114.097 73.6514C114.138 73.6514 114.158 73.6915 114.198 73.6915ZM104.613 39.0545C104.613 39.0545 104.552 38.8738 104.492 38.8136C104.552 38.8738 104.593 38.9541 104.613 39.0545ZM104.492 38.8136C104.492 38.8136 104.371 38.7132 104.311 38.6931C104.391 38.7132 104.452 38.7533 104.492 38.8136Z" fill="#C6D92E"/>
<path d="M113.614 6.16441L102.74 16.9872L80.9918 38.6529C80.8105 38.8337 80.73 39.0545 80.73 39.2955C80.73 39.5364 80.8105 39.7573 80.9918 39.938L90.9597 50.1384C90.9597 50.1384 90.9999 50.1584 90.9999 50.1785C91.302 50.4396 91.7249 50.4998 92.0873 50.3392C92.188 50.299 92.2887 50.2187 92.3693 50.1384L103.847 38.7132C103.968 38.6128 104.129 38.5927 104.27 38.6329C104.452 38.6931 104.613 38.8537 104.613 39.0746L104.774 63.9129C104.774 63.9129 104.774 63.9329 104.774 63.953C104.774 63.953 104.774 63.9932 104.774 64.0133C104.774 64.0133 104.774 64.0333 104.774 64.0534C104.814 64.3546 104.935 64.6357 105.156 64.8365L113.695 73.3502C113.795 73.4506 113.936 73.551 114.057 73.6112C114.097 73.6112 114.117 73.6514 114.158 73.6514C114.158 73.6514 114.178 73.6514 114.198 73.6514C114.198 73.6514 114.238 73.6514 114.258 73.6514C114.299 73.6514 114.339 73.6514 114.379 73.6514V5.76282C114.057 5.76282 113.735 5.92345 113.493 6.16441" fill="#010101"/>
</g>
<defs>
<clipPath id="clip0_1454_1277">
<rect width="229" height="182" fill="white"/>
</clipPath>
</defs>
</svg>
