<svg width="25" height="25" viewBox="0 0 25 25" fill="none" xmlns="http://www.w3.org/2000/svg">
<path d="M19.7915 7.29159H11.4582V14.5833H3.12484V5.20825H1.0415V20.8333H3.12484V17.7083H21.8748V20.8333H23.9582V11.4583C23.9582 10.3532 23.5192 9.29338 22.7378 8.51197C21.9564 7.73057 20.8966 7.29159 19.7915 7.29159ZM7.2915 13.5416C8.12031 13.5416 8.91516 13.2123 9.50121 12.6263C10.0873 12.0402 10.4165 11.2454 10.4165 10.4166C10.4165 9.58778 10.0873 8.79293 9.50121 8.20688C8.91516 7.62083 8.12031 7.29159 7.2915 7.29159C6.4627 7.29159 5.66785 7.62083 5.0818 8.20688C4.49574 8.79293 4.1665 9.58778 4.1665 10.4166C4.1665 11.2454 4.49574 12.0402 5.0818 12.6263C5.66785 13.2123 6.4627 13.5416 7.2915 13.5416Z" fill="#1E1E1E"/>
</svg>
