<svg width="206" height="182" viewBox="0 0 206 182" fill="none" xmlns="http://www.w3.org/2000/svg">
<g clip-path="url(#clip0_1454_1459)">
<path d="M166.197 56.3943H123.585C124.435 58.7719 124.915 61.3167 124.915 63.9916C124.915 67.0936 124.269 70.0657 123.123 72.7591H149.104C145.039 94.6035 125.95 111.135 103.018 111.135C83.4678 111.135 66.6707 99.0802 59.6858 81.9724H41.9463C49.6704 108.554 74.0807 127.965 103.018 127.965C135.227 127.965 161.836 103.928 166.086 72.7405C166.474 69.8613 166.677 66.9636 166.677 63.973C166.677 61.4096 166.529 58.8834 166.215 56.3757L166.197 56.3943Z" fill="#010101"/>
<path d="M60.5358 72.7591C59.9076 69.9357 59.5749 67.0008 59.5749 63.9916C59.5749 61.3911 59.8152 58.8463 60.2956 56.3944H56.6923C60.2956 33.9369 79.6428 16.8291 102.963 16.8291C123.511 16.8291 140.955 30.1104 147.293 48.5742H164.755C157.937 20.6742 132.88 0 102.981 0C67.8349 0 39.3408 28.643 39.3408 63.9916C39.3408 66.9637 39.5441 69.88 39.9321 72.7591H60.5173H60.5358Z" fill="#010101"/>
<path d="M102.981 41.9614C109.116 41.9614 114.66 44.5062 118.651 48.5742H137.721C131.826 35.1815 118.485 25.8381 103 25.8381C84.6504 25.8381 69.3316 38.9708 65.8021 56.3944C65.3217 58.8463 65.063 61.3911 65.063 63.9916C65.063 67.0008 65.4141 69.9357 66.0793 72.7591C66.8369 76.0098 68.0011 79.1119 69.5533 81.9725C75.9284 93.9535 88.5124 102.127 103 102.127C117.487 102.127 130.089 93.9535 136.464 81.9725H115.658C112.073 84.5358 107.712 86.0218 103 86.0218C98.2876 86.0218 93.9082 84.5173 90.3418 81.9725C87.0895 79.6691 84.5025 76.4742 82.8949 72.7591H117.69C119.021 70.14 119.76 67.168 119.76 63.9916C119.76 61.3168 119.224 58.7348 118.245 56.3944H82.4144C85.5189 47.9612 93.5756 41.9614 103 41.9614H102.981Z" fill="#010101"/>
<path d="M0.850018 157.035C1.95874 157.555 3.71421 158.038 5.50664 158.038C7.42842 158.038 8.46322 157.351 8.46322 156.292C8.46322 155.307 7.57625 154.732 5.35881 154.044C2.2544 153.097 0.240222 151.629 0.240222 149.289C0.240222 146.558 2.90115 144.478 7.26211 144.478C9.38715 144.478 10.9024 144.85 11.9926 145.277L11.0687 148.193C10.3296 147.896 8.9991 147.431 7.18819 147.431C5.37729 147.431 4.49031 148.156 4.49031 148.992C4.49031 150.013 5.52512 150.459 7.92734 151.258C11.2165 152.317 12.7318 153.803 12.7318 156.069C12.7318 158.744 10.3665 161.047 5.24794 161.047C3.14137 161.047 1.0348 160.546 0 160.044L0.850018 157.053V157.035Z" fill="#010101"/>
<path d="M19.883 156.663L18.571 160.787H14.2285L19.883 144.738H25.3711L31.155 160.787H26.6277L25.2048 156.663H19.8645H19.883ZM24.595 153.951L23.4309 150.534C23.1167 149.586 22.7841 148.379 22.4885 147.45H22.433C22.1559 148.397 21.8787 149.605 21.583 150.552L20.4743 153.951H24.5766H24.595Z" fill="#010101"/>
<path d="M36.8466 144.738V153.97C36.8466 156.738 38.0847 158.168 40.2097 158.168C42.3347 158.168 43.6283 156.831 43.6283 153.97V144.738H47.8229V153.747C47.8229 158.707 44.9218 161.047 40.0803 161.047C35.2389 161.047 32.6704 158.799 32.6704 153.691V144.719H36.8651L36.8466 144.738Z" fill="#010101"/>
<path d="M51.4629 144.961C53.0151 144.738 55.0108 144.608 57.1174 144.608C60.6468 144.608 62.9381 145.165 64.7121 146.336C66.6339 147.58 67.8535 149.53 67.8535 152.372C67.8535 155.456 66.5599 157.574 64.786 158.874C62.8273 160.286 59.8522 160.954 56.2304 160.954C54.0499 160.954 52.4977 160.843 51.4629 160.713V144.942V144.961ZM55.6575 158.056C56.0271 158.112 56.6 158.112 57.1174 158.112C60.924 158.131 63.4186 156.329 63.4186 152.484C63.4186 149.14 61.1642 147.394 57.5608 147.394C56.6369 147.394 56.0271 147.469 55.6575 147.543V158.056Z" fill="#010101"/>
<path d="M74.8201 144.738V160.787H70.6255V144.738H74.8201Z" fill="#010101"/>
<path d="M95.0543 153.989H88.2357V157.815H95.8674V160.787H84.041V144.738H95.4793V147.71H88.2357V151.054H95.0543V154.007V153.989Z" fill="#010101"/>
<path d="M114.235 160.044C112.942 160.434 110.484 160.954 108.045 160.954C104.645 160.954 102.206 160.211 100.506 158.8C98.8055 157.406 97.8631 155.307 97.8816 152.948C97.9001 147.599 102.409 144.571 108.47 144.571C110.872 144.571 112.701 144.961 113.625 145.332L112.757 148.249C111.722 147.859 110.484 147.562 108.433 147.562C104.94 147.562 102.28 149.27 102.28 152.763C102.28 156.255 104.7 158.019 108.137 158.019C109.08 158.019 109.856 157.926 110.188 157.796V154.416H107.324V151.592H114.254V160.044H114.235Z" fill="#010101"/>
<path d="M121.793 160.787V154.211L115.935 144.738H120.739L122.624 148.602C123.197 149.753 123.604 150.608 124.047 151.685H124.103C124.509 150.682 124.971 149.735 125.507 148.602L127.373 144.738H132.104L125.987 154.081V160.787H121.793Z" fill="#010101"/>
<path d="M133.638 144.942C134.931 144.757 136.742 144.608 139.292 144.608C141.842 144.608 143.727 145.035 144.965 145.908C146.148 146.707 146.924 148.044 146.924 149.623C146.924 151.202 146.332 152.54 145.224 153.431C143.782 154.601 141.657 155.14 139.2 155.14C138.645 155.14 138.146 155.103 137.777 155.066V160.824H133.619V144.98L133.638 144.942ZM137.795 152.224C138.146 152.298 138.571 152.317 139.181 152.317C141.417 152.317 142.785 151.351 142.785 149.716C142.785 148.249 141.62 147.357 139.495 147.357C138.664 147.357 138.091 147.413 137.777 147.469V152.205L137.795 152.224Z" fill="#010101"/>
<path d="M153.225 147.784H148.217V144.738H162.501V147.784H157.42V160.787H153.225V147.784Z" fill="#010101"/>
<path d="M168.913 144.738V160.787H164.719V144.738H168.913Z" fill="#010101"/>
<path d="M176.878 156.663L175.566 160.787H171.223L176.878 144.738H182.366L188.15 160.787H183.622L182.199 156.663H176.859H176.878ZM181.59 153.951L180.426 150.534C180.111 149.586 179.779 148.379 179.483 147.45H179.428C179.15 148.397 178.873 149.605 178.578 150.552L177.469 153.951H181.571H181.59Z" fill="#010101"/>
<path d="M190.644 160.787V144.738H195.522L199.366 150.626C200.475 152.317 201.565 154.323 202.396 156.125H202.47C202.212 153.989 202.138 151.834 202.138 149.4V144.719H205.981V160.768H201.583L197.611 154.583C196.502 152.855 195.282 150.794 194.395 148.917H194.303C194.432 151.054 194.488 153.32 194.488 155.939V160.768H190.644V160.787Z" fill="#010101"/>
<path d="M37.105 167.92C38.5463 167.753 40.154 167.604 41.9649 167.604C45.4019 167.604 48.0259 168.421 49.5411 169.852C50.8901 171.115 51.4814 172.619 51.4814 174.421C51.4814 176.019 50.927 177.969 49.2455 179.529C47.6748 180.96 44.9399 181.851 41.3181 181.851C39.8583 181.851 38.5094 181.833 37.105 181.721V167.901V167.92ZM38.2876 180.904C39.0637 181.015 40.2094 181.034 41.5029 181.034C47.6563 181.034 50.2803 178.099 50.2803 174.458C50.3357 171.022 47.7856 168.477 41.8725 168.477C40.3018 168.477 39.1376 168.607 38.2876 168.756V180.923V180.904Z" fill="#010101"/>
<path d="M62.8825 174.793H55.6758V180.904H63.6955V181.759H54.4932V167.753H63.289V168.607H55.6758V173.957H62.8825V174.811V174.793Z" fill="#010101"/>
<path d="M70.6251 181.759L64.7119 167.753H65.9685L69.1653 175.462C70.0522 177.616 70.7544 179.269 71.2534 180.718H71.3088C71.8632 179.251 72.6762 177.523 73.6371 175.48L77.2404 167.753H78.5155L71.7892 181.759H70.6436H70.6251Z" fill="#010101"/>
<path d="M88.5124 174.793H81.3057V180.904H89.3254V181.759H80.123V167.753H88.9189V168.607H81.3057V173.957H88.5124V174.811V174.793Z" fill="#010101"/>
<path d="M92.3931 167.734H93.5757V180.904H101.595V181.758H92.3931V167.753V167.734Z" fill="#010101"/>
<path d="M118.392 174.551C118.392 179.399 114.401 182 110.169 182C105.55 182 102.113 179.028 102.113 174.923C102.113 170.52 105.716 167.474 110.336 167.474C114.955 167.474 118.392 170.502 118.392 174.551ZM103.351 174.886C103.351 178.192 105.975 181.164 110.225 181.164C114.475 181.164 117.173 178.359 117.173 174.644C117.173 171.616 114.882 168.329 110.299 168.329C105.716 168.329 103.351 171.449 103.351 174.904V174.886Z" fill="#010101"/>
<path d="M121.441 167.883C122.476 167.734 123.788 167.604 125.285 167.604C127.447 167.604 129.018 168.069 129.978 168.849C130.792 169.517 131.272 170.428 131.272 171.579C131.272 172.805 130.847 173.771 130.015 174.477C128.907 175.48 127.059 176 124.915 176C124.084 176 123.289 175.982 122.605 175.796V181.758H121.423V167.883H121.441ZM122.624 174.886C123.289 175.071 124.158 175.127 125.082 175.127C128.297 175.127 130.108 173.864 130.108 171.691C130.108 169.276 127.89 168.44 125.285 168.44C124.065 168.44 123.123 168.551 122.642 168.626V174.867L122.624 174.886Z" fill="#010101"/>
<path d="M142.987 174.793H135.781V180.904H143.801V181.759H134.598V167.753H143.394V168.607H135.781V173.957H142.987V174.811V174.793Z" fill="#010101"/>
<path d="M146.887 167.92C147.995 167.734 149.585 167.604 150.823 167.604C153.132 167.604 154.574 168.013 155.553 168.849C156.255 169.406 156.699 170.353 156.699 171.301C156.699 173.158 155.331 174.421 153.354 174.941V174.978C154.685 175.369 155.535 176.427 155.923 177.82C156.532 180.031 156.865 181.127 157.253 181.721H155.997C155.738 181.331 155.368 180.105 154.906 178.359C154.37 176.334 153.317 175.406 151.118 175.294H148.051V181.721H146.868V167.901L146.887 167.92ZM148.069 174.496H151.192C153.853 174.496 155.535 173.288 155.535 171.486C155.535 169.239 153.391 168.459 150.804 168.459C149.492 168.459 148.513 168.589 148.069 168.681V174.496Z" fill="#010101"/>
<path d="M159.526 180.105C160.579 180.737 161.984 181.145 163.536 181.145C166.16 181.145 167.749 179.938 167.749 178.211C167.749 176.613 166.807 175.703 164.09 174.941C160.838 174.05 159.544 172.898 159.544 171.078C159.544 169.016 161.596 167.474 164.571 167.474C166.271 167.474 167.546 167.827 168.174 168.18L167.712 169.034C167.25 168.756 166.104 168.31 164.515 168.31C161.614 168.31 160.69 169.833 160.69 170.929C160.69 172.434 161.725 173.288 164.349 174.013C167.305 174.848 168.895 175.852 168.895 178.118C168.895 180.05 167.268 182 163.388 182C161.854 182 160.043 181.591 159.064 180.96L159.526 180.105Z" fill="#010101"/>
</g>
<defs>
<clipPath id="clip0_1454_1459">
<rect width="206" height="182" fill="white"/>
</clipPath>
</defs>
</svg>
